<?xml version="1.0" encoding="utf-8"?>
<!-- Generator: Adobe Illustrator 21.0.1, SVG Export Plug-In . SVG Version: 6.00 Build 0)  -->
<svg version="1.1" id="objects" xmlns="http://www.w3.org/2000/svg" xmlns:xlink="http://www.w3.org/1999/xlink" x="0px" y="0px"
	 viewBox="0 0 800 800" style="enable-background:new 0 0 800 800;" xml:space="preserve">
<style type="text/css">
	.st0{fill:#00808F;}
</style>
<g>
	<path class="st0" d="M769.7,603.2c-2.1-6.3-15.4-15.6-39.9-27.8c-6.6-3.8-16.1-9.1-28.3-15.7c-12.3-6.7-23.4-12.8-33.3-18.4
		c-10-5.6-19.3-11-28.1-16.3c-1.4-1-5.8-4.1-13.1-9.2c-7.3-5.1-13.6-8.8-18.6-11.3c-5.1-2.5-10.1-3.7-15-3.7c-7,0-15.7,5-26.2,14.9
		c-10.5,10-20.1,20.8-28.8,32.5s-18,22.6-27.8,32.5c-9.8,10-17.9,15-24.2,15c-3.1,0-7.1-0.9-11.8-2.6c-4.7-1.8-8.3-3.2-10.8-4.5
		c-2.4-1.2-6.6-3.7-12.6-7.4c-5.9-3.7-9.3-5.7-10-6c-47.9-26.6-89-57-123.3-91.3s-64.7-75.4-91.3-123.3c-0.3-0.7-2.4-4-6-10
		c-3.7-5.9-6.1-10.2-7.4-12.6c-1.2-2.5-2.7-6-4.5-10.8c-1.7-4.7-2.6-8.7-2.6-11.8c0-6.3,5-14.3,15-24.2c10-9.8,20.8-19.1,32.5-27.8
		c11.7-8.7,22.5-18.4,32.5-28.8c10-10.5,15-19.2,15-26.3c0-4.9-1.2-9.9-3.7-14.9c-2.5-5.1-6.2-11.3-11.3-18.6
		c-5.1-7.3-8.1-11.7-9.2-13.1c-5.2-8.7-10.7-18.1-16.3-28c-5.6-10-11.7-21.1-18.4-33.3c-6.6-12.2-11.9-21.7-15.7-28.3
		c-12.3-24.5-21.5-37.8-27.8-39.9c-2.4-1-6.1-1.6-11-1.6c-9.4,0-21.8,1.8-37,5.3s-27.2,7.2-35.9,11c-17.5,7.4-36,28.7-55.6,64
		c-17.8,32.9-26.8,65.4-26.8,97.6c0,9.4,0.6,18.6,1.8,27.5s3.4,19,6.6,30.2c3.1,11.2,5.7,19.5,7.6,24.9c1.9,5.4,5.5,15.1,10.8,29.1
		s8.4,22.6,9.4,25.7c12.3,34.3,26.8,64.9,43.6,91.8c27.6,44.8,65.3,91,113.1,138.8c47.7,47.7,94,85.4,138.8,113.1
		c26.9,16.8,57.6,31.3,91.8,43.6c3.1,1,11.7,4.2,25.7,9.4s23.7,8.8,29.1,10.7c5.4,2,13.7,4.5,24.9,7.6s21.3,5.3,30.2,6.5
		s18.1,1.9,27.5,1.9c32.2,0,64.7-8.9,97.6-26.8c35.3-19.6,56.7-38.1,64-55.6c3.9-8.7,7.5-20.7,11-35.9s5.3-27.5,5.3-37
		C771.3,609.3,770.8,605.7,769.7,603.2L769.7,603.2z"/>
</g>
</svg>
