<?xml version="1.0" encoding="utf-8"?>
<!-- Generator: Adobe Illustrator 21.0.1, SVG Export Plug-In . SVG Version: 6.00 Build 0)  -->
<svg version="1.1" id="Layer_1" xmlns="http://www.w3.org/2000/svg" xmlns:xlink="http://www.w3.org/1999/xlink" x="0px" y="0px"
	 viewBox="0 0 130 130" style="enable-background:new 0 0 130 130;" xml:space="preserve">
<style type="text/css">
	.st0{fill:#FFFFFF;}
</style>
<g>
	<g>
		<path class="st0" d="M114.4,64.6c-1.6,0-3,1.3-3,3v53.2h-32V87.4c0-1.6-1.3-3-3-3H53c-1.6,0-3,1.3-3,3v26.5c0,1.7,1.3,3,3,3
			c1.7,0,3-1.3,3-3V90.4h17.4v30.4H18V47.7l46.7-37.5l47.9,38.3c1.3,1,3.2,0.8,4.2-0.5c1-1.3,0.8-3.2-0.5-4.2L66.6,4.1
			c-1.1-0.9-2.6-0.9-3.7,0L13.1,43.9c-0.7,0.6-1.1,1.4-1.1,2.3v77.5c0,1.7,1.3,3,3,3h99.4c1.7,0,3-1.3,3-3V67.6
			C117.4,66,116.1,64.6,114.4,64.6L114.4,64.6z M114.4,64.6"/>
	</g>
</g>
</svg>
