<?xml version="1.0" encoding="utf-8"?>
<!-- Generator: Adobe Illustrator 21.0.1, SVG Export Plug-In . SVG Version: 6.00 Build 0)  -->
<svg version="1.1" id="Layer_1" xmlns="http://www.w3.org/2000/svg" xmlns:xlink="http://www.w3.org/1999/xlink" x="0px" y="0px"
	 viewBox="0 0 110 110" style="enable-background:new 0 0 110 110;" xml:space="preserve">
<style type="text/css">
	.st0{fill:#FFFFFF;}
	.st1{fill:#07939F;}
	.st2{fill:none;stroke:#07939F;stroke-miterlimit:10;}
	.st3{fill:#99C546;}
	.st4{fill:#0994A0;}
</style>
<g>
	<path class="st0" d="M55.3,49.1c5.3,0,9.6-4.3,9.6-9.6c0-5.3-4.3-9.5-9.6-9.5s-9.6,4.3-9.6,9.5C45.7,44.8,50,49.1,55.3,49.1
		L55.3,49.1z M55.3,32.7c3.8,0,6.8,3.1,6.8,6.8c0,3.8-3.1,6.8-6.8,6.8c-3.8,0-6.8-3.1-6.8-6.8C48.5,35.8,51.5,32.7,55.3,32.7
		L55.3,32.7z M55.3,32.7"/>
	<path class="st0" d="M55.1,88.4L76,58.1c7.9-10.5,6.7-27.7-2.4-36.8c-4.9-4.9-11.5-7.7-18.5-7.7c-7,0-13.6,2.7-18.5,7.7
		c-9.2,9.2-10.3,26.4-2.5,36.8L55.1,88.4z M38.5,23.2c4.4-4.4,10.3-6.9,16.6-6.9c6.3,0,12.2,2.4,16.6,6.9c8.3,8.3,9.3,23.8,2.1,33.3
		l-18.7,27L36.3,56.5C29.2,47,30.2,31.5,38.5,23.2L38.5,23.2z M38.5,23.2"/>
	<path class="st0" d="M71.8,72.3c-0.8-0.1-1.4,0.4-1.5,1.2c-0.1,0.8,0.4,1.4,1.2,1.5c14.3,1.7,22,6.2,22,8.9
		c0,3.7-14.5,8.9-38.2,8.9c-23.7,0-38.2-5.2-38.2-8.9c0-2.6,7.6-7.2,22-8.9c0.8-0.1,1.3-0.8,1.2-1.5c-0.1-0.7-0.8-1.3-1.5-1.2
		C24.4,74,14.4,78.8,14.4,83.9c0,5.8,14.1,11.6,40.9,11.6s40.9-5.8,40.9-11.6C96.3,78.8,86.2,74,71.8,72.3L71.8,72.3z M71.8,72.3"/>
</g>
</svg>
