<?xml version="1.0" encoding="utf-8"?>
<!-- Generator: Adobe Illustrator 21.0.1, SVG Export Plug-In . SVG Version: 6.00 Build 0)  -->
<svg version="1.1" id="Layer_1" xmlns="http://www.w3.org/2000/svg" xmlns:xlink="http://www.w3.org/1999/xlink" x="0px" y="0px"
	 viewBox="0 0 110 110" style="enable-background:new 0 0 110 110;" xml:space="preserve">
<style type="text/css">
	.st0{fill:#FFFFFF;}
	.st1{fill:#07939F;}
	.st2{fill:none;stroke:#07939F;stroke-miterlimit:10;}
	.st3{fill:#99C546;}
	.st4{fill:#0994A0;}
</style>
<g>
	<path class="st3" d="M76.5,37c-0.3,3.2-0.5,5.8-0.8,8.5c-0.2,2.3,0.1,5.1-3.7,2.6c-1.2-0.8-1.7,0.8-2,1.4c-2.9,7.6-8.8,9.2-16,8
		c-4.3-0.8-6.9,1.1-8.7,4.9c-1.4,2.9-3.3,5.6-5.1,8.4c-1.3,2-3.1,3-5.4,1.8c-2.3-1.2-2.7-3.4-1.6-5.5c2.8-5.3,5.8-10.4,8.8-15.5
		c1-1.7,2.6-2,4.4-2c3.1,0,6.3-0.3,9.3,0.1c3.6,0.4,5.5-1.3,6.9-4.2c0.7-1.4,1.9-2.4-0.8-3.3c-2.1-0.7-1.5-2.6,0-3.6
		c3.7-2.6,7.5-5.1,11.4-7.5c2.2-1.4,3.4-0.4,3.3,2.2C76.4,34.6,76.5,36,76.5,37z"/>
	<path class="st4" d="M82.6,27.6c4,0,7,2.3,7.6,6.2c0.4,2.4,0.4,4.8,0.4,7.2c0,3.2,0.7,5.8,3.6,7.6c2.6,1.7,2.7,4.2,0.1,5.8
		c-3,1.9-3.6,4.5-3.6,7.6c0,2.5-0.1,5.1-0.5,7.6c-0.6,3.8-3.9,6.1-7.6,5.9c-1.7-0.1-3.1-0.6-3.5-2.5c-0.3-1.7,0.2-3.2,2.1-3.6
		c2.3-0.5,2.9-1.9,2.9-4c0.1-4.8-0.7-9.8,3.6-13.4c0.6-0.5,0.3-0.9-0.2-1.4c-3.6-3-3.4-7.2-3.4-11.4c0-2.7,0.3-5.5-3.5-6.2
		c-1.7-0.3-1.8-2.1-1.5-3.5C79.5,27.8,81.2,27.7,82.6,27.6z"/>
	<path class="st1" d="M27.8,27.6c1.4,0.1,3.2,0.2,3.5,2.5c0.3,1.8-0.4,3.2-2.2,3.5c-2.9,0.6-2.8,2.8-2.8,4.9
		c-0.2,4.3,0.5,8.9-3.3,12.2c-0.8,0.7-0.5,1.2,0.1,1.7c3.5,3.1,3.2,7.3,3.2,11.4c0,2.6-0.1,5.2,3.4,5.9c1.7,0.3,1.9,1.9,1.7,3.4
		c-0.2,1.5-1.3,2.1-2.6,2.4c-3.9,0.8-8-2.1-8.5-6.3c-0.3-2.4-0.3-4.8-0.4-7.2c0-3.1-0.7-5.8-3.6-7.6c-2.5-1.5-2.7-4-0.3-5.5
		c3.6-2.3,3.9-5.6,4-9.2c0.1-2.7-0.3-5.4,0.8-8C21.9,28.9,24.4,27.7,27.8,27.6z"/>
</g>
</svg>
