<?xml version="1.0" encoding="utf-8"?>
<!-- Generator: Adobe Illustrator 21.0.1, SVG Export Plug-In . SVG Version: 6.00 Build 0)  -->
<svg version="1.1" id="objects" xmlns="http://www.w3.org/2000/svg" xmlns:xlink="http://www.w3.org/1999/xlink" x="0px" y="0px"
	 viewBox="0 0 800 800" style="enable-background:new 0 0 800 800;" xml:space="preserve">
<style type="text/css">
	.st0{fill:#00808F;}
</style>
<g>
<path class="st0" d="M560.5,110.3C481.3,48.2,390,53.9,390,53.9c-138.6,6.9-207.3,113.4-207.3,113.4c-87.4,131.1-14,272-14,272
	c57.3,89.7,127.9,162.8,127.9,162.8c67.2,68.9,101.9,152,101.9,152c31.7-86.3,172.9-233.4,172.9-233.4
	c57.5-65.7,80.3-141.9,80.3-141.9C694.5,216.3,560.5,110.3,560.5,110.3z M400,506.8c-104.6,0-189.5-84.8-189.5-189.5
	c0-104.6,84.8-189.5,189.5-189.5c104.6,0,189.5,84.8,189.5,189.5C589.5,422,504.6,506.8,400,506.8z"/>
</g>
</svg>
