<?xml version="1.0" encoding="utf-8"?>
<!-- Generator: Adobe Illustrator 21.0.1, SVG Export Plug-In . SVG Version: 6.00 Build 0)  -->
<svg version="1.1" id="Layer_1" xmlns="http://www.w3.org/2000/svg" xmlns:xlink="http://www.w3.org/1999/xlink" x="0px" y="0px"
	 viewBox="0 0 110 110" style="enable-background:new 0 0 110 110;" xml:space="preserve">
<style type="text/css">
	.st0{fill:#FFFFFF;}
	.st1{fill:#07939F;}
	.st2{fill:none;stroke:#07939F;stroke-miterlimit:10;}
	.st3{fill:#99C546;}
	.st4{fill:#0994A0;}
</style>
<g>
	<path class="st0" d="M107.2,79.9c-1.1,0-1.9,0-2.8,0c-0.6,0-0.6-0.4-0.6-0.8c-0.3-3.1-1.1-6.1-2.7-8.9
		c-5.7-10.1-18.3-13.8-28.6-8.3c-0.1,0.1-0.3,0.2-0.5,0.3c6.8,5.4,10.5,12.4,11,21c-1.2,0-2.4,0-3.5,0c-0.3-1.5-0.4-3-0.8-4.5
		c-1.1-5.1-3.7-9.3-7.6-12.8c-5.1-4.7-11.2-6.1-17.9-5.7c-11.8,0.8-20.2,10.6-21.4,20.6c0,0.3-0.1,0.5-0.1,0.8
		c-0.2,1.6-0.2,1.6-1.9,1.6c-0.5,0-1.1,0-1.7,0c0.1-4.2,1.2-8.1,3.1-11.8c1.9-3.7,4.6-6.7,7.7-9.3C26.4,54.7,8.3,62.5,7.1,79.8
		c-1,0-1.9,0-3.2,0c0.3-1.8,0.5-3.6,0.9-5.3c2.5-9.5,10.5-16.7,20.3-18c5.7-0.7,11.1,0.3,16,3.4c0.6,0.3,0.9,0.3,1.5,0
		c8.6-4.3,17.1-4.3,25.7,0c0.6,0.3,1,0.3,1.5,0c14.6-8.8,33.1-0.7,36.6,15.9C106.9,77.1,107,78.4,107.2,79.9z"/>
	<path class="st0" d="M55.5,26.2c7.4,0,13.2,5.9,13.3,13.3C69,45.8,63.7,53,55.1,52.7c-7.7-0.2-12.9-6.7-12.8-13.3
		C42.3,32.1,48.2,26.2,55.5,26.2z M55.5,49.3c5.6,0,9.8-4.3,9.8-9.8c0-5.4-4.4-9.8-9.8-9.8c-5.4,0-9.7,4.4-9.7,9.8
		C45.8,45,50,49.3,55.5,49.3z"/>
	<path class="st0" d="M82.6,52.8c-6.5,0-11.8-5.4-11.8-11.9c0-6.5,5.3-11.8,11.9-11.8c6.5,0,11.8,5.3,11.8,11.9
		C94.5,47.5,89.2,52.8,82.6,52.8z M82.8,32.3c-4.9,0-8.8,3.8-8.8,8.7c0,4.7,3.9,8.7,8.5,8.7c5,0,8.9-3.8,8.9-8.7
		C91.4,36.2,87.5,32.3,82.8,32.3z"/>
	<path class="st0" d="M28.3,52.8c-6.5-0.1-11.8-5.5-11.6-12c0.1-6.5,5.5-11.7,12-11.6c6.6,0.1,11.8,5.5,11.7,12
		C40.2,47.6,34.7,52.9,28.3,52.8z M37.2,41c0-4.8-3.9-8.7-8.6-8.7c-4.9,0-8.8,3.8-8.8,8.7c0,4.8,3.9,8.7,8.5,8.7
		C33.3,49.7,37.2,45.9,37.2,41z"/>
</g>
</svg>
